<svg xmlns="http://www.w3.org/2000/svg" viewBox="0 0 414 132.29"><defs><style>.cls-1{fill:#fff;}.cls-2{fill:#f53d49;}</style></defs><title>Asset 2</title><g id="Layer_2" data-name="Layer 2"><g id="Hero-Mobile"><g id="Logo"><path class="cls-1" d="M164.6,5.1s-32.42,10-32.42,32.42S174.58,74.93,197,74.93c47.39,0,74.82-22.45,74.82-22.45s0,62.35-57.36,62.35c-44.89,0-79.81-42.4-79.81-42.4s24.94,52.37,94.77,52.37c37.41,0,67.34-39.9,67.34-89.78,0,0-59.86,27.43-94.77,27.43-7.48,0-47.39-2.49-47.39-32.42C154.63,12.58,164.6,5.1,164.6,5.1Z"/><path class="cls-2" d="M0,10.09V32.53S52.37,60,94.77,60c62.35,0,77.31-47.39,169.59-47.39,29.93,0,64.84,10,64.84,10S296.78.11,256.88.11C167.1-2.38,149.64,37.52,82.3,37.52,27.43,37.52,0,10.09,0,10.09Z"/><path class="cls-2" d="M414,82.41v22.45s-52.37,27.43-94.77,27.43c-62.35,0-77.31-47.39-169.59-47.39-29.93,0-64.84,10-64.84,10s32.42-22.45,72.33-22.45c89.78-2.49,107.24,37.41,174.58,37.41C386.57,109.85,414,82.41,414,82.41Z"/></g></g></g></svg>